<svg width="16" height="16" viewBox="0 0 16 16" fill="none" xmlns="http://www.w3.org/2000/svg">
<path d="M12.6665 0.666504C11.9792 0.666504 11.2138 0.985171 10.7658 1.4325L4.6665 7.53317L3.33317 12.6665L8.46651 11.3332L14.5658 5.23317C15.0245 4.7745 15.3332 4.0625 15.3332 3.33317C15.3332 1.8605 14.1392 0.666504 12.6665 0.666504ZM10.9085 3.17584L11.3998 3.6665L6.99984 8.06651L6.50917 7.57584L10.9085 3.17584ZM5.19384 10.8058L5.74584 8.67984L7.31984 10.2538L5.19384 10.8058ZM8.42384 9.48984L7.93317 8.99984L12.3332 4.59984L12.8232 5.08984L8.42384 9.48984ZM13.7418 4.14184L11.8598 2.25984C12.0705 2.1205 12.3845 1.99984 12.6665 1.99984C13.4018 1.99984 13.9998 2.59784 13.9998 3.33317C13.9998 3.64784 13.8825 3.93917 13.7418 4.14184ZM12.6665 13.9998H1.99984V3.33317H6.9805L8.31384 1.99984H0.666504V15.3332H13.9998V7.68451L12.6665 9.01784V13.9998Z" fill="black"/>
</svg>
