<svg width="107" height="34" viewBox="0 0 107 34" fill="none" xmlns="http://www.w3.org/2000/svg">
<path d="M16.5 10.5C17 11.3333 18.8 13 22 13C25.2 13 26.6667 11.3333 27 10.5" stroke="#166EA4" stroke-width="2" stroke-linecap="round"/>
<path d="M11.5 13C11.5 16.5 12.6 23.2 17 22C21.4 20.8 22.8333 10.8333 23 6" stroke="#166EA4" stroke-width="2" stroke-linecap="round"/>
<path d="M2 4V30.899C2 31.7411 2.97708 32.2061 3.63059 31.6751L9.4489 26.9478C9.8054 26.6581 10.2507 26.5 10.7101 26.5H28.5C29.6046 26.5 30.5 25.6046 30.5 24.5V4C30.5 2.89543 29.6046 2 28.5 2H4C2.89543 2 2 2.89543 2 4Z" stroke="#166EA4" stroke-width="3"/>
<circle cx="11" cy="9.5" r="1.5" fill="#166EA4"/>
<path d="M41.7517 23.6034H45.1327V6.12685H49.9301V2.61453H37V6.12685H41.7517V23.6034Z" fill="white"/>
<path d="M53.3752 24C54.8373 24 56.1166 23.0936 57.236 21.9039H57.3273L57.5558 23.6034H60.2972V14.3411C60.2972 9.75246 58.6295 7.34483 55.3855 7.34483C53.3752 7.34483 51.5476 8.27956 50.0399 9.44089L51.2506 12.1884C52.4386 11.3387 53.5808 10.6872 54.7687 10.6872C56.345 10.6872 56.8933 11.8768 56.9618 13.4347C51.7989 14.1145 49.583 15.899 49.583 19.298C49.583 21.9889 51.0907 24 53.3752 24ZM54.4718 20.7426C53.4894 20.7426 52.7812 20.2044 52.7812 18.9581C52.7812 17.5419 53.8321 16.4655 56.9618 15.984V19.1847C56.1394 20.1761 55.4312 20.7426 54.4718 20.7426Z" fill="white"/>
<path d="M66.4154 24C67.215 24 67.7633 23.83 68.1516 23.6318L67.7404 20.5443C67.512 20.601 67.4206 20.601 67.2835 20.601C66.9637 20.601 66.621 20.2894 66.621 19.3264V1H63.2629V19.1564C63.2629 22.1022 64.0853 24 66.4154 24Z" fill="white"/>
<path d="M70.0119 23.6034H73.3244V19.5813L75.1291 17.032L78.236 23.6034H81.8683L77.0709 14.2845L81.4571 7.74138H77.7791L73.4157 14.5677H73.3244V1H70.0119V23.6034Z" fill="white"/>
<path d="M88.3798 23.6034H91.7608V2.61453H88.3798V23.6034Z" fill="white"/>
<path d="M98.8216 23.6034H102.203V6.12685H107V2.61453H94.0699V6.12685H98.8216V23.6034Z" fill="white"/>
<path d="M40.576 31H42.058C43.036 31 43.744 30.58 43.744 29.704C43.744 29.11 43.384 28.762 42.88 28.654V28.63C43.276 28.492 43.504 28.096 43.504 27.67C43.504 26.872 42.85 26.584 41.95 26.584H40.576V31ZM41.278 28.426V27.13H41.89C42.508 27.13 42.82 27.304 42.82 27.766C42.82 28.174 42.544 28.426 41.872 28.426H41.278ZM41.278 30.454V28.954H41.98C42.682 28.954 43.06 29.176 43.06 29.674C43.06 30.208 42.664 30.454 41.98 30.454H41.278ZM44.26 31H47.116V30.412H45.994C45.772 30.412 45.496 30.436 45.268 30.46C46.186 29.494 46.906 28.702 46.906 27.922C46.906 27.136 46.384 26.626 45.574 26.626C44.998 26.626 44.608 26.872 44.224 27.28L44.62 27.664C44.854 27.4 45.142 27.178 45.49 27.178C45.982 27.178 46.234 27.484 46.234 27.952C46.234 28.63 45.49 29.392 44.26 30.598V31ZM47.9998 31H49.4818C50.4598 31 51.1678 30.58 51.1678 29.704C51.1678 29.11 50.8078 28.762 50.3038 28.654V28.63C50.6998 28.492 50.9278 28.096 50.9278 27.67C50.9278 26.872 50.2738 26.584 49.3738 26.584H47.9998V31ZM48.7018 28.426V27.13H49.3138C49.9318 27.13 50.2438 27.304 50.2438 27.766C50.2438 28.174 49.9678 28.426 49.2958 28.426H48.7018ZM48.7018 30.454V28.954H49.4038C50.1058 28.954 50.4838 29.176 50.4838 29.674C50.4838 30.208 50.0878 30.454 49.4038 30.454H48.7018ZM53.3494 31H54.0514V26.584H53.3494V31ZM56.101 31H56.803V27.172H58.099V26.584H54.805V27.172H56.101V31ZM60.2166 31H60.8466V28.822C60.8466 28.42 60.7926 27.856 60.7566 27.454H60.7806L61.1346 28.474L61.9026 30.58H62.3346L63.1026 28.474L63.4626 27.454H63.4866C63.4506 27.856 63.3966 28.42 63.3966 28.822V31H64.0386V26.584H63.2346L62.4366 28.822C62.3406 29.11 62.2566 29.41 62.1486 29.71H62.1246C62.0226 29.41 61.9326 29.11 61.8246 28.822L61.0206 26.584H60.2166V31ZM66.5171 31.084C66.9491 31.084 67.3271 30.94 67.6331 30.736L67.3931 30.292C67.1471 30.448 66.9011 30.538 66.6071 30.538C66.0371 30.538 65.6411 30.166 65.5871 29.536H67.7291C67.7471 29.452 67.7591 29.32 67.7591 29.182C67.7591 28.246 67.2851 27.616 66.4151 27.616C65.6471 27.616 64.9091 28.282 64.9091 29.356C64.9091 30.442 65.6171 31.084 66.5171 31.084ZM65.5751 29.056C65.6471 28.48 66.0131 28.162 66.4271 28.162C66.9071 28.162 67.1591 28.486 67.1591 29.056H65.5751ZM69.6755 31.084C70.0475 31.084 70.3895 30.886 70.6415 30.634H70.6595L70.7135 31H71.2835V26.224H70.5875V27.442L70.6175 27.988C70.3535 27.76 70.1075 27.616 69.7295 27.616C68.9975 27.616 68.3195 28.282 68.3195 29.356C68.3195 30.448 68.8475 31.084 69.6755 31.084ZM69.8435 30.508C69.3275 30.508 69.0335 30.094 69.0335 29.344C69.0335 28.636 69.4055 28.192 69.8675 28.192C70.1135 28.192 70.3475 28.276 70.5875 28.498V30.106C70.3535 30.382 70.1135 30.508 69.8435 30.508ZM72.3148 31H73.0108V27.7H72.3148V31ZM72.6628 27.082C72.9148 27.082 73.0948 26.92 73.0948 26.668C73.0948 26.422 72.9148 26.26 72.6628 26.26C72.4048 26.26 72.2368 26.422 72.2368 26.668C72.2368 26.92 72.4048 27.082 72.6628 27.082ZM74.8233 31.084C75.2193 31.084 75.5733 30.886 75.8733 30.628H75.8973L75.9513 31H76.5213V29.02C76.5213 28.138 76.1433 27.616 75.3213 27.616C74.7933 27.616 74.3253 27.838 73.9893 28.048L74.2473 28.522C74.5233 28.342 74.8533 28.18 75.2013 28.18C75.6813 28.18 75.8193 28.516 75.8253 28.9C74.4573 29.05 73.8573 29.416 73.8573 30.124C73.8573 30.706 74.2593 31.084 74.8233 31.084ZM75.0393 30.532C74.7453 30.532 74.5233 30.4 74.5233 30.076C74.5233 29.704 74.8473 29.458 75.8253 29.344V30.148C75.5553 30.4 75.3273 30.532 75.0393 30.532ZM78.9022 31H79.6042V29.326H80.2702C81.2302 29.326 81.9322 28.888 81.9322 27.922C81.9322 26.92 81.2302 26.584 80.2462 26.584H78.9022V31ZM79.6042 28.768V27.148H80.1742C80.8822 27.148 81.2422 27.334 81.2422 27.922C81.2422 28.498 80.9062 28.768 80.2042 28.768H79.6042ZM83.4228 31.084C83.5968 31.084 83.7048 31.054 83.7948 31.024L83.7048 30.502C83.6448 30.514 83.6208 30.514 83.5908 30.514C83.5068 30.514 83.4288 30.448 83.4288 30.262V26.224H82.7328V30.226C82.7328 30.76 82.9188 31.084 83.4228 31.084ZM85.2999 31.084C85.6959 31.084 86.0499 30.886 86.3499 30.628H86.3739L86.4279 31H86.9979V29.02C86.9979 28.138 86.6199 27.616 85.7979 27.616C85.2699 27.616 84.8019 27.838 84.4659 28.048L84.7239 28.522C84.9999 28.342 85.3299 28.18 85.6779 28.18C86.1579 28.18 86.2959 28.516 86.3019 28.9C84.9339 29.05 84.3339 29.416 84.3339 30.124C84.3339 30.706 84.7359 31.084 85.2999 31.084ZM85.5159 30.532C85.2219 30.532 84.9999 30.4 84.9999 30.076C84.9999 29.704 85.3239 29.458 86.3019 29.344V30.148C86.0319 30.4 85.8039 30.532 85.5159 30.532ZM88.958 31.084C89.204 31.084 89.426 31.018 89.612 30.958L89.486 30.448C89.384 30.49 89.246 30.532 89.132 30.532C88.79 30.532 88.646 30.322 88.646 29.932V28.252H89.51V27.7H88.646V26.788H88.07L87.992 27.7L87.476 27.736V28.252H87.956V29.926C87.956 30.616 88.22 31.084 88.958 31.084ZM90.3409 31H91.0309V27.286C91.0309 26.884 91.1809 26.692 91.4689 26.692C91.5889 26.692 91.7149 26.716 91.8349 26.776L91.9729 26.248C91.8229 26.188 91.6129 26.14 91.3849 26.14C90.6529 26.14 90.3409 26.614 90.3409 27.286V31ZM89.8909 28.252H91.7029V27.7H90.3769L89.8909 27.736V28.252ZM93.5334 31.084C94.3494 31.084 95.0874 30.448 95.0874 29.356C95.0874 28.252 94.3494 27.616 93.5334 27.616C92.7114 27.616 91.9794 28.252 91.9794 29.356C91.9794 30.448 92.7114 31.084 93.5334 31.084ZM93.5334 30.514C93.0114 30.514 92.6934 30.052 92.6934 29.356C92.6934 28.654 93.0114 28.192 93.5334 28.192C94.0494 28.192 94.3794 28.654 94.3794 29.356C94.3794 30.052 94.0494 30.514 93.5334 30.514ZM95.8988 31H96.5948V28.948C96.7988 28.426 97.1228 28.234 97.3868 28.234C97.5248 28.234 97.6088 28.252 97.7228 28.288L97.8428 27.688C97.7408 27.64 97.6388 27.616 97.4768 27.616C97.1228 27.616 96.7748 27.868 96.5408 28.294H96.5228L96.4628 27.7H95.8988V31ZM98.3539 31H99.0499V28.66C99.3139 28.36 99.5659 28.216 99.7879 28.216C100.166 28.216 100.34 28.438 100.34 29.014V31H101.03V28.66C101.306 28.36 101.546 28.216 101.774 28.216C102.146 28.216 102.32 28.438 102.32 29.014V31H103.01V28.924C103.01 28.09 102.692 27.616 102.002 27.616C101.588 27.616 101.252 27.88 100.922 28.222C100.784 27.844 100.508 27.616 100.016 27.616C99.6079 27.616 99.2779 27.862 98.9959 28.162H98.9779L98.9179 27.7H98.3539V31Z" fill="white"/>
</svg>
