<svg width="163" height="51" viewBox="0 0 163 51" fill="none" xmlns="http://www.w3.org/2000/svg">
<path d="M25.0952 15.4763C25.8571 16.7462 28.6 19.2858 33.4762 19.2858C38.3524 19.2858 40.5873 16.7462 41.0952 15.4763" stroke="white" stroke-width="3.04762" stroke-linecap="round"/>
<path d="M17.4761 19.2858C17.4761 24.6191 19.1523 34.8287 25.857 33.0001C32.5618 31.1715 34.7459 15.9842 34.9999 8.61914" stroke="white" stroke-width="3.04762" stroke-linecap="round"/>
<path d="M3 5.57155V46.5605C3 47.8436 4.48888 48.5523 5.48471 47.7432L14.3507 40.5396C14.8939 40.0982 15.5726 39.8572 16.2725 39.8572H43.381C45.0641 39.8572 46.4286 38.4928 46.4286 36.8096V5.57154C46.4286 3.88839 45.0641 2.52393 43.381 2.52393H6.04762C4.36447 2.52393 3 3.88839 3 5.57155Z" stroke="white" stroke-width="4.57143"/>
<ellipse cx="16.7144" cy="13.9525" rx="2.28571" ry="2.28571" fill="white"/>
<path d="M63.5742 35.4436H68.7262V8.81258H76.0365V3.46048H56.3335V8.81258H63.5742V35.4436Z" fill="white"/>
<path d="M81.2862 36.0479C83.5141 36.0479 85.4635 34.6667 87.1693 32.8539H87.3085L87.6566 35.4436H91.8339V21.3296C91.8339 14.3373 89.2927 10.6686 84.3496 10.6686C81.2862 10.6686 78.5013 12.0929 76.2038 13.8625L78.0488 18.0493C79.8589 16.7544 81.5995 15.7617 83.4097 15.7617C85.8116 15.7617 86.6471 17.5745 86.7515 19.9484C78.8842 20.9843 75.5076 23.7035 75.5076 28.883C75.5076 32.9834 77.8051 36.0479 81.2862 36.0479ZM82.9571 31.0842C81.4602 31.0842 80.3811 30.2641 80.3811 28.365C80.3811 26.2069 81.9824 24.5667 86.7515 23.833V28.7103C85.4983 30.221 84.4192 31.0842 82.9571 31.0842Z" fill="white"/>
<path d="M101.157 36.0479C102.375 36.0479 103.211 35.7889 103.803 35.4868L103.176 30.7821C102.828 30.8684 102.689 30.8684 102.48 30.8684C101.992 30.8684 101.47 30.3936 101.47 28.9261V1.00024H96.3531V28.6671C96.3531 33.156 97.6063 36.0479 101.157 36.0479Z" fill="white"/>
<path d="M106.637 35.4436H111.685V29.3146L114.435 25.43L119.169 35.4436H124.704L117.394 21.2433L124.078 11.2728H118.473L111.824 21.6749H111.685V1.00024H106.637V35.4436Z" fill="white"/>
<path d="M134.626 35.4436H139.778V3.46048H134.626V35.4436Z" fill="white"/>
<path d="M150.538 35.4436H155.69V8.81258H163V3.46048H143.297V8.81258H150.538V35.4436Z" fill="white"/>
<path d="M61.7916 46.0479H64.0408C65.5311 46.0479 66.6191 45.4079 66.6191 44.073C66.6191 43.1587 66.0614 42.6376 65.2934 42.473V42.4273C65.8968 42.2261 66.2534 41.6136 66.2534 40.9736C66.2534 39.7576 65.2568 39.3096 63.8762 39.3096H61.7916V46.0479ZM62.8522 42.1256V40.1416H63.7848C64.7356 40.1416 65.2111 40.4067 65.2111 41.1107C65.2111 41.7416 64.7814 42.1256 63.7574 42.1256H62.8522ZM62.8522 45.2159V42.921H63.9219C64.9916 42.921 65.5768 43.2593 65.5768 44.0181C65.5768 44.841 64.9734 45.2159 63.9219 45.2159H62.8522ZM67.4053 46.0479H71.7481V45.1519H70.0384C69.7093 45.1519 69.2796 45.1793 68.9413 45.2159C70.3401 43.753 71.4281 42.5461 71.4281 41.3484C71.4281 40.1599 70.6327 39.3736 69.3984 39.3736C68.5207 39.3736 67.9264 39.7576 67.3504 40.3793L67.9447 40.9644C68.3013 40.553 68.7401 40.2147 69.2704 40.2147C70.0293 40.2147 70.4133 40.6901 70.4133 41.4033C70.4133 42.4273 69.2796 43.5976 67.4053 45.4353V46.0479ZM73.1041 46.0479H75.3533C76.8436 46.0479 77.9316 45.4079 77.9316 44.073C77.9316 43.1587 77.3739 42.6376 76.6059 42.473V42.4273C77.2093 42.2261 77.5659 41.6136 77.5659 40.9736C77.5659 39.7576 76.5693 39.3096 75.1887 39.3096H73.1041V46.0479ZM74.1647 42.1256V40.1416H75.0973C76.0481 40.1416 76.5236 40.4067 76.5236 41.1107C76.5236 41.7416 76.0939 42.1256 75.0699 42.1256H74.1647ZM74.1647 45.2159V42.921H75.2344C76.3041 42.921 76.8893 43.2593 76.8893 44.0181C76.8893 44.841 76.2859 45.2159 75.2344 45.2159H74.1647ZM81.2559 46.0479H82.3165V39.3096H81.2559V46.0479ZM85.4488 46.0479H86.5094V40.2056H88.4934V39.3096H83.4739V40.2056H85.4488V46.0479ZM91.7113 46.0479H92.6621V42.7199C92.6621 42.1164 92.5799 41.2479 92.5341 40.6353H92.5707L93.101 42.1896L94.2804 45.3987H94.9387L96.109 42.1896L96.6484 40.6353H96.685C96.6301 41.2479 96.5479 42.1164 96.5479 42.7199V46.0479H97.5353V39.3096H96.3101L95.0941 42.7199C94.9387 43.1679 94.8107 43.625 94.6553 44.073H94.6096C94.4541 43.625 94.317 43.1679 94.1616 42.7199L92.9273 39.3096H91.7113V46.0479ZM101.303 46.1667C101.961 46.1667 102.537 45.9473 103.003 45.6364L102.638 44.969C102.272 45.2067 101.888 45.3439 101.44 45.3439C100.571 45.3439 99.968 44.7679 99.8857 43.8079H103.15C103.177 43.6799 103.205 43.4787 103.205 43.2684C103.205 41.8513 102.482 40.8913 101.147 40.8913C99.9771 40.8913 98.8526 41.9061 98.8526 43.5336C98.8526 45.1976 99.9406 46.1667 101.303 46.1667ZM99.8766 43.0764C99.9771 42.1987 100.535 41.7141 101.166 41.7141C101.897 41.7141 102.29 42.217 102.29 43.0764H99.8766ZM106.116 46.1667C106.683 46.1667 107.204 45.865 107.579 45.481H107.615L107.698 46.0479H108.557V38.761H107.506V40.6261L107.551 41.4581C107.14 41.1107 106.774 40.8913 106.198 40.8913C105.074 40.8913 104.041 41.9061 104.041 43.5336C104.041 45.2067 104.854 46.1667 106.116 46.1667ZM106.363 45.2981C105.577 45.2981 105.129 44.6673 105.129 43.5244C105.129 42.4364 105.695 41.769 106.399 41.769C106.774 41.769 107.131 41.8879 107.506 42.2261V44.6856C107.14 45.1061 106.783 45.2981 106.363 45.2981ZM110.138 46.0479H111.189V41.0193H110.138V46.0479ZM110.659 40.0776C111.043 40.0776 111.317 39.8307 111.317 39.4467C111.317 39.0719 111.043 38.825 110.659 38.825C110.275 38.825 110.01 39.0719 110.01 39.4467C110.01 39.8307 110.275 40.0776 110.659 40.0776ZM113.951 46.1667C114.555 46.1667 115.094 45.865 115.551 45.4719H115.588L115.67 46.0479H116.53V43.0216C116.53 41.6867 115.954 40.8913 114.701 40.8913C113.896 40.8913 113.192 41.2204 112.671 41.5496L113.064 42.2627C113.494 41.9884 113.988 41.7507 114.518 41.7507C115.259 41.7507 115.469 42.2627 115.478 42.8479C113.384 43.0764 112.47 43.6341 112.47 44.713C112.47 45.5999 113.083 46.1667 113.951 46.1667ZM114.271 45.3347C113.823 45.3347 113.485 45.1336 113.485 44.6399C113.485 44.073 113.988 43.689 115.478 43.5153V44.7496C115.067 45.1244 114.71 45.3347 114.271 45.3347ZM120.167 46.0479H121.227V43.497H122.242C123.705 43.497 124.775 42.8204 124.775 41.3484C124.775 39.8307 123.705 39.3096 122.206 39.3096H120.167V46.0479ZM121.227 42.6467V40.169H122.105C123.175 40.169 123.732 40.4616 123.732 41.3484C123.732 42.2353 123.22 42.6467 122.142 42.6467H121.227ZM127.037 46.1667C127.302 46.1667 127.476 46.1301 127.604 46.0844L127.467 45.289C127.375 45.3073 127.339 45.3073 127.293 45.3073C127.165 45.3073 127.046 45.2067 127.046 44.9233V38.761H125.995V44.8684C125.995 45.6821 126.278 46.1667 127.037 46.1667ZM129.907 46.1667C130.51 46.1667 131.05 45.865 131.507 45.4719H131.543L131.626 46.0479H132.485V43.0216C132.485 41.6867 131.909 40.8913 130.656 40.8913C129.852 40.8913 129.148 41.2204 128.627 41.5496L129.02 42.2627C129.45 41.9884 129.943 41.7507 130.474 41.7507C131.214 41.7507 131.424 42.2627 131.434 42.8479C129.34 43.0764 128.426 43.6341 128.426 44.713C128.426 45.5999 129.038 46.1667 129.907 46.1667ZM130.227 45.3347C129.779 45.3347 129.44 45.1336 129.44 44.6399C129.44 44.073 129.943 43.689 131.434 43.5153V44.7496C131.022 45.1244 130.666 45.3347 130.227 45.3347ZM135.517 46.1667C135.882 46.1667 136.221 46.0753 136.504 45.9839L136.312 45.2067C136.166 45.2707 135.946 45.3256 135.773 45.3256C135.251 45.3256 135.041 45.0147 135.041 44.4113V41.8604H136.349V41.0193H135.041V39.6296H134.163L134.045 41.0193L133.258 41.0741V41.8604H133.99V44.4021C133.99 45.4627 134.383 46.1667 135.517 46.1667ZM137.624 46.0479H138.675V41.8604H139.69V41.0193H138.675V40.3793C138.675 39.7667 138.895 39.4741 139.343 39.4741C139.516 39.4741 139.708 39.5199 139.891 39.6021L140.102 38.8067C139.873 38.7153 139.553 38.6421 139.215 38.6421C138.09 38.6421 137.624 39.3553 137.624 40.3884V41.0193L136.938 41.0741V41.8604H137.624V46.0479ZM142.515 46.1667C143.759 46.1667 144.883 45.2067 144.883 43.5336C144.883 41.8604 143.759 40.8913 142.515 40.8913C141.272 40.8913 140.147 41.8604 140.147 43.5336C140.147 45.2067 141.272 46.1667 142.515 46.1667ZM142.515 45.3073C141.729 45.3073 141.235 44.6033 141.235 43.5336C141.235 42.473 141.729 41.7599 142.515 41.7599C143.311 41.7599 143.804 42.473 143.804 43.5336C143.804 44.6033 143.311 45.3073 142.515 45.3073ZM146.12 46.0479H147.171V42.9119C147.482 42.1164 147.976 41.833 148.387 41.833C148.588 41.833 148.716 41.8604 148.89 41.9153L149.082 41.001C148.927 40.9279 148.762 40.8913 148.515 40.8913C147.976 40.8913 147.446 41.2753 147.089 41.9244H147.062L146.979 41.0193H146.12V46.0479ZM149.861 46.0479H150.912V42.4821C151.324 42.025 151.699 41.7964 152.037 41.7964C152.613 41.7964 152.878 42.1439 152.878 43.0124V46.0479H153.93V42.4821C154.35 42.025 154.716 41.7964 155.063 41.7964C155.63 41.7964 155.904 42.1439 155.904 43.0124V46.0479H156.956V42.8844C156.956 41.6044 156.462 40.8913 155.411 40.8913C154.78 40.8913 154.268 41.2844 153.774 41.8147C153.555 41.2387 153.134 40.8913 152.384 40.8913C151.763 40.8913 151.26 41.2661 150.83 41.7233H150.803L150.72 41.0193H149.861V46.0479Z" fill="white"/>
</svg>
